<?xml version="1.0" encoding="utf-8"?>
<!-- Generator: Adobe Illustrator 21.1.0, SVG Export Plug-In . SVG Version: 6.00 Build 0)  -->
<svg version="1.1" id="Calque_1" xmlns="http://www.w3.org/2000/svg" xmlns:xlink="http://www.w3.org/1999/xlink" x="0px" y="0px"
	 viewBox="0 0 512 512" style="enable-background:new 0 0 512 512;" xml:space="preserve">
<style type="text/css">
	.st0{fill:#6C6C6C;}
	.st1{fill:#FFFFFF;}
</style>
<path class="st0" d="M76.8,0h358.4C477.6,0,512,34.4,512,76.8v358.4c0,42.4-34.4,76.8-76.8,76.8H76.8C34.4,512,0,477.6,0,435.2V76.8
	C0,34.4,34.4,0,76.8,0z"/>
<path class="st1" d="M403.8,165.2c0.1,0.4,0.2,0.9,0.2,1.3v67.2c0,1.7-0.9,3.4-2.4,4.2l-56.4,32.5v64.4c0,1.7-0.9,3.4-2.4,4.2
	l-117.8,67.8c-0.3,0.2-0.6,0.3-0.9,0.4c-0.1,0-0.2,0.1-0.3,0.2c-0.8,0.2-1.7,0.2-2.5,0c-0.2,0-0.3-0.1-0.4-0.2
	c-0.3-0.1-0.6-0.2-0.8-0.4l-117.8-67.8c-1.5-0.9-2.5-2.5-2.5-4.2V133.2c0-0.4,0.1-0.9,0.2-1.3c0-0.2,0.1-0.3,0.2-0.4
	c0.1-0.3,0.2-0.5,0.3-0.8c0-0.2,0.2-0.3,0.3-0.4c0.2-0.2,0.3-0.4,0.5-0.6c0.2-0.1,0.3-0.2,0.5-0.4c0.2-0.2,0.4-0.3,0.6-0.4L161.1,95
	c1.5-0.9,3.4-0.9,4.9,0l58.9,33.9c0.2,0.1,0.4,0.3,0.5,0.4c0.2,0.1,0.4,0.3,0.5,0.4c0.2,0.2,0.3,0.4,0.4,0.6
	c0.1,0.1,0.3,0.3,0.4,0.4c0.1,0.3,0.2,0.5,0.3,0.8c0,0.2,0.2,0.3,0.2,0.4c0.2,0.4,0.2,0.8,0.2,1.3v126l49-28.2v-64.4
	c0-0.5,0.1-0.9,0.2-1.3c0-0.2,0.1-0.3,0.2-0.4c0.1-0.3,0.2-0.5,0.3-0.8c0.1-0.2,0.3-0.3,0.4-0.5c0.2-0.2,0.3-0.4,0.4-0.6
	c0.2-0.1,0.4-0.3,0.5-0.4c0.2-0.2,0.3-0.3,0.5-0.4l58.9-33.9c1.5-0.9,3.4-0.9,4.9,0l58.9,33.9c0.2,0.1,0.4,0.3,0.6,0.4
	c0.2,0.1,0.3,0.2,0.5,0.4c0.2,0.1,0.3,0.4,0.5,0.6c0.1,0.2,0.3,0.3,0.3,0.5c0.2,0.3,0.2,0.5,0.3,0.8
	C403.8,164.9,403.8,165.1,403.8,165.2L403.8,165.2z M394.2,230.9V175l-20.6,11.8l-28.4,16.4v55.9L394.2,230.9z M335.3,332v-55.9
	l-28,16l-79.9,45.7v56.4L335.3,332z M109.5,141.7V332l108,62.1v-56.4l-56.4-32c-0.2-0.1-0.4-0.3-0.5-0.4c-0.2-0.1-0.4-0.2-0.5-0.4h0
	c-0.2-0.2-0.3-0.4-0.4-0.5c-0.1-0.2-0.3-0.3-0.4-0.5c-0.1-0.2-0.2-0.4-0.3-0.6c-0.1-0.2-0.2-0.4-0.3-0.6c0-0.2-0.1-0.5-0.1-0.7
	c0-0.2-0.1-0.4-0.1-0.6V169.9l-28.4-16.4L109.5,141.7z M163.5,104.9l-49,28.2l49,28.2l49-28.2L163.5,104.9z M189.1,281.2l28.4-16.4
	V141.7l-20.6,11.8l-28.5,16.4V293L189.1,281.2z M340.2,138.2l-49.1,28.2l49.1,28.2l49-28.2L340.2,138.2z M335.3,203.3L286.2,175
	v55.9l28.4,16.4l20.6,11.8L335.3,203.3z M222.4,329.2l107.9-61.6l-49-28.2l-107.9,62.1L222.4,329.2z"/>
</svg>
