<?xml version="1.0" encoding="utf-8"?>
<!-- Generator: Adobe Illustrator 21.1.0, SVG Export Plug-In . SVG Version: 6.00 Build 0)  -->
<svg version="1.1" id="Calque_1" xmlns="http://www.w3.org/2000/svg" xmlns:xlink="http://www.w3.org/1999/xlink" x="0px" y="0px"
	 viewBox="0 0 512 512" style="enable-background:new 0 0 512 512;" xml:space="preserve">
<style type="text/css">
	.st0{fill:#FFFFFF;}
	.st1{fill:#F05340;}
	.st2{fill:none;}
	.st3{fill:#FFFFFF;stroke:#FFFFFF;stroke-miterlimit:10;}
	.st4{fill:#6C6C6C;}
</style>
<path class="st0" d="M207.5,1h98.2C420,1,512.6,93.6,512.6,207.9v98.2C512.6,420.4,420,513,305.7,513h-98.2
	C93.2,513,0.6,420.4,0.6,306.1v-98.2C0.6,93.6,93.2,1,207.5,1z"/>
<path class="st1" d="M-469.9,380.3"/>
<g>
	<rect x="79.2" y="257.1" class="st1" width="148.9" height="16.2"/>
	<path class="st1" d="M164.5,155.6L164.5,155.6z"/>
	<line class="st2" x1="247.8" y1="357.8" x2="247.8" y2="363.3"/>
	<path class="st1" d="M256.1,218.4l-0.2,94.2c-4.5-8.2-7-17.5-7-27.4v-39C248.9,236.2,251.5,226.7,256.1,218.4z"/>
	<path class="st1" d="M448,245.1v41.4c0,39.2-32.1,71.3-71.3,71.3h-79.3c-10.3,0-20.2-2.2-29.1-6.3V334c9.8,5.5,21.3,8.8,33.6,8.8
		H368c35,0,63.7-25.9,63.7-57.6v-39c0-31.7-28.7-57.6-63.7-57.6h-66.1c-12.3,0-23.8,3.2-33.6,8.8v-17.3c8.9-4,18.8-6.3,29.1-6.3
		h79.3C415.9,173.7,448,205.8,448,245.1z"/>
	<path class="st3" d="M255.9,312.6L255.9,312.6c3.2,5.9,7.4,11.2,12.4,15.6v5.9c-3.1-1.7-6-3.7-8.7-5.9c-1.3-1.1-2.5-2.1-3.8-3.3
		c-5.9-5.6-10.6-12.3-13.6-19.6l0,0c-2.6-6.3-4-13-4-20.1v-39c0-7.4,1.6-14.5,4.4-21.1c3.1-7.1,7.7-13.5,13.5-18.9
		c1.1-1,2.3-2,3.5-3c2.7-2.2,5.6-4.1,8.7-5.9v5.9c-4.8,4.3-9,9.4-12.2,15.2l0,0L255.9,312.6z"/>
	<line class="st2" x1="268.2" y1="357.8" x2="268.2" y2="351.6"/>
	<line class="st2" x1="268.2" y1="180" x2="268.2" y2="173.6"/>
	<path class="st4" d="M256.6,184.9l-0.2,27.8l-0.1,10.7l0,0l-0.6,82.8l0,0l-0.1,10.8l-0.2,30c-3.1-1.5-9.8-21-13.4-47.3l0,0
		c-1.4-10.4-2.3-21.9-2.2-33.7c0.1-13,1.2-25.5,2.9-36.7C246.9,203.1,253.9,184.5,256.6,184.9z"/>
	<path class="st2" d="M192.7,194.4v142.7c0,10.5-8.6,19.2-19.2,19.2H82.2c-1.4,0-2.7-0.2-4-0.4V175.6c1.3-0.3,2.7-0.4,4-0.4h91.3
		C184,175.2,192.7,183.8,192.7,194.4z"/>
	<path class="st1" d="M79.2,175.6v180.2C70.5,354,64,346.3,64,337.1V194.4C64,185.2,70.5,177.5,79.2,175.6z"/>
	<line class="st2" x1="78.2" y1="360.5" x2="78.2" y2="355.9"/>
</g>
</svg>
